# xmcd
#
# Track frame offsets:
#	150
#	20755
#	37517
#	59213
#	79165
#	98920
#	131934
#	152095
#	174760
#
# Disc length: 2642 seconds
#
# Revision: 1
# Processed by: cddbd v1.4PL0 Copyright (c) Steve Scherf et al.
# Submitted via: audiograbber 1.82.01
#
DISCID=6f0a5009
DTITLE=Tony Kiwan - Habibi Ya Mama
DYEAR=1900
DGENRE=Ethnic
TTITLE0=Habibi Ya Mama
TTITLE1=Ammartellik Bayt
TTITLE2=Aziz
TTITLE3=Salma
TTITLE4=Alef Dakka
TTITLE5=Cocktail Jamlo
TTITLE6=La Tesaalini
TTITLE7=Ana Bel Sahra
TTITLE8=Ya Habib Albi
EXTD=
EXTT0=
EXTT1=
EXTT2=
EXTT3=
EXTT4=
EXTT5=
EXTT6=
EXTT7=
EXTT8=
PLAYORDER=
